<svg width="28" height="21" viewBox="0 0 28 21" fill="none" xmlns="http://www.w3.org/2000/svg">
<g id="&#240;&#159;&#166;&#134; emoji &#34;youtube&#34;">
<g id="Group">
<path id="Vector" d="M25.8211 4.4896C25.5349 3.41186 24.6917 2.56319 23.6209 2.27516C21.6802 1.75171 13.8981 1.75171 13.8981 1.75171C13.8981 1.75171 6.11602 1.75171 4.17528 2.27516C3.10457 2.56319 2.26127 3.41186 1.9751 4.4896C1.45508 6.44291 1.45508 10.5184 1.45508 10.5184C1.45508 10.5184 1.45508 14.5938 1.9751 16.5473C2.26127 17.6249 3.10457 18.4736 4.17528 18.7617C6.11602 19.2851 13.8981 19.2851 13.8981 19.2851C13.8981 19.2851 21.6802 19.2851 23.6209 18.7617C24.6917 18.4736 25.5349 17.6249 25.8211 16.5473C26.3411 14.5938 26.3411 10.5184 26.3411 10.5184C26.3411 10.5184 26.3411 6.44291 25.8211 4.4896Z" stroke="#356BB3" stroke-width="2" stroke-miterlimit="10"/>
<path id="Vector_2" d="M11.353 14.2183L17.8573 10.5183L11.353 6.81787V14.2183Z" stroke="#356BB3" stroke-width="2" stroke-miterlimit="10" stroke-linecap="round" stroke-linejoin="round"/>
</g>
</g>
</svg>
