<svg width="29" height="28" viewBox="0 0 29 28" fill="none" xmlns="http://www.w3.org/2000/svg">
<g id="&#240;&#159;&#166;&#134; icon &#34;facebook&#34;">
<g id="Group">
<path id="Vector" d="M17.158 10.4967V14.1773H20.4578C20.7117 14.1773 20.8386 14.4312 20.8386 14.685L20.3309 17.0965C20.3309 17.2234 20.0771 17.3503 19.9502 17.3503H17.158V26.6154H13.3504V17.4772H11.1928C10.9389 17.4772 10.812 17.3503 10.812 17.0965V14.685C10.812 14.4312 10.9389 14.3042 11.1928 14.3042H13.3504V10.1159C13.3504 7.9583 15.0003 6.30835 17.158 6.30835H20.5848C20.8386 6.30835 20.9655 6.43527 20.9655 6.68911V9.73516C20.9655 9.989 20.8386 10.1159 20.5848 10.1159H17.5387C17.2849 10.1159 17.158 10.2428 17.158 10.4967Z" stroke="#356BB3" stroke-width="2" stroke-miterlimit="10" stroke-linecap="round"/>
<path id="Vector_2" d="M18.4267 26.6157H10.8116C4.46562 26.6157 1.92725 24.0773 1.92725 17.7314V10.1163C1.92725 3.77031 4.46562 1.23193 10.8116 1.23193H18.4267C24.7726 1.23193 27.311 3.77031 27.311 10.1163V17.7314C27.311 24.0773 24.7726 26.6157 18.4267 26.6157Z" stroke="#356BB3" stroke-width="2" stroke-linecap="round" stroke-linejoin="round"/>
</g>
</g>
</svg>
